<?xml version="1.0" standalone="no"?>
<!DOCTYPE svg PUBLIC "-//W3C//DTD SVG 20010904//EN"
 "http://www.w3.org/TR/2001/REC-SVG-20010904/DTD/svg10.dtd">
<svg version="1.0" xmlns="http://www.w3.org/2000/svg"
 width="512.000000pt" height="512.000000pt" viewBox="0 0 512.000000 512.000000"
 preserveAspectRatio="xMidYMid meet" >

<g transform="translate(0.000000,512.000000) scale(0.100000,-0.100000)"
fill="#000000" stroke="none">
<path d="M253 4895 c-102 -31 -176 -96 -222 -195 l-26 -55 0 -1585 0 -1585 26
-56 c37 -79 90 -133 167 -171 l67 -33 872 -3 873 -2 0 -174 0 -174 -193 -4
-193 -3 -66 -33 c-77 -38 -130 -92 -167 -171 -24 -51 -26 -69 -29 -204 -4
-165 3 -199 49 -222 42 -22 2256 -22 2298 0 46 23 53 57 49 222 -3 135 -5 153
-29 204 -37 79 -90 133 -167 171 l-66 33 -193 3 -193 4 0 174 0 174 873 2 872
3 56 26 c79 37 133 90 171 167 l33 67 0 1585 0 1585 -33 67 c-38 77 -92 130
-171 167 l-56 26 -937 3 -937 2 -33 -29 c-27 -24 -33 -36 -33 -71 0 -35 6 -47
33 -71 l32 -29 907 0 c895 0 907 0 949 -21 31 -15 48 -32 63 -63 21 -42 21
-50 21 -1329 l0 -1287 -355 0 -355 0 0 1210 c0 1316 3 1252 -55 1278 -20 9
-400 12 -1596 12 -1707 0 -1611 3 -1637 -55 -9 -20 -12 -319 -12 -1235 l0
-1210 -355 0 -355 0 0 1287 c0 1279 0 1287 21 1329 15 31 32 48 63 63 42 21
54 21 955 21 l913 0 29 29 c31 31 39 83 19 122 -28 50 0 49 -987 48 -730 0
-927 -3 -960 -14z m3757 -1735 l0 -1150 -1450 0 -1450 0 0 1150 0 1150 1450 0
1450 0 0 -1150z m908 -1499 c-3 -163 -8 -178 -72 -225 l-27 -21 -2259 0 -2259
0 -27 21 c-64 47 -69 62 -72 225 l-4 149 2362 0 2362 0 -4 -149z m-2008 -626
l0 -175 -96 0 c-92 0 -97 -1 -125 -29 -38 -39 -40 -97 -5 -138 l24 -28 369 -5
c347 -5 370 -6 403 -25 49 -30 72 -75 78 -156 l5 -69 -1003 0 -1003 0 5 69 c6
81 29 126 78 156 33 19 56 20 403 25 l369 5 24 28 c35 41 33 99 -5 138 -28 28
-33 29 -125 29 l-96 0 0 175 0 175 350 0 350 0 0 -175z"/>
<path d="M1798 4090 c-15 -11 -32 -38 -38 -58 -6 -22 -10 -177 -10 -384 0
-344 0 -347 -22 -368 -26 -24 -37 -25 -85 -5 -57 24 -100 19 -134 -14 -63 -63
-25 -143 86 -182 137 -48 276 14 339 151 19 42 21 66 24 379 4 374 1 430 -31
467 -31 36 -93 43 -129 14z"/>
<path d="M2378 4092 c-99 -36 -180 -118 -209 -212 -16 -52 -24 -421 -10 -519
18 -134 76 -217 190 -272 63 -31 195 -32 261 -2 105 49 172 140 190 259 13 89
12 389 0 479 -7 43 -21 89 -39 119 -75 133 -244 199 -383 148z m158 -198 c61
-29 64 -46 64 -309 0 -263 -3 -280 -64 -309 -43 -20 -69 -20 -112 0 -61 29
-64 46 -64 309 0 262 4 279 62 308 42 21 71 21 114 1z"/>
<path d="M3063 4100 c-12 -5 -30 -21 -40 -37 -16 -25 -18 -62 -21 -443 -2
-228 0 -434 3 -458 3 -23 17 -55 30 -70 l23 -27 199 0 c195 0 199 0 248 27
111 59 166 148 173 280 4 77 2 92 -22 145 -15 32 -43 74 -62 94 l-34 35 21 48
c29 68 24 190 -11 260 -31 61 -97 120 -157 140 -52 18 -310 22 -350 6z m312
-215 c20 -19 25 -34 25 -75 0 -41 -5 -56 -25 -75 -21 -22 -33 -25 -95 -25
l-70 0 0 100 0 100 70 0 c62 0 74 -3 95 -25z m76 -413 c24 -27 29 -41 29 -85
0 -97 -43 -127 -180 -127 l-90 0 0 126 0 126 106 -4 c105 -3 106 -3 135 -36z"/>
<path d="M1493 2850 c-12 -5 -30 -21 -40 -37 -16 -24 -18 -52 -18 -253 0 -201
2 -229 18 -253 10 -16 29 -32 43 -37 33 -13 595 -13 628 0 14 5 33 21 43 37
16 24 18 52 18 253 0 201 -2 229 -18 253 -10 16 -29 32 -43 37 -32 12 -601 12
-631 0z m487 -290 l0 -100 -170 0 -170 0 0 100 0 100 170 0 170 0 0 -100z"/>
<path d="M2444 2850 c-56 -23 -72 -108 -30 -157 l24 -28 597 0 597 0 24 28
c33 38 33 96 0 134 l-24 28 -584 2 c-320 1 -593 -2 -604 -7z"/>
<path d="M2444 2450 c-56 -23 -72 -108 -30 -157 l24 -28 197 0 197 0 24 28
c33 38 33 96 0 134 l-24 28 -184 2 c-100 1 -193 -2 -204 -7z"/>
<path d="M3194 2451 c-56 -24 -72 -109 -30 -158 20 -23 32 -28 71 -28 60 0 95
35 95 95 0 70 -72 118 -136 91z"/>
<path d="M2498 4881 c-27 -24 -33 -36 -33 -71 0 -35 6 -47 33 -71 44 -40 93
-40 133 0 48 49 38 125 -21 156 -43 22 -76 18 -112 -14z"/>
</g>
</svg>
